<svg width="101" height="100" viewBox="0 0 101 100" fill="none" xmlns="http://www.w3.org/2000/svg">
<g clip-path="url(#clip0_4_20)">
<path d="M63 18.75C64.6576 18.75 66.2473 19.4085 67.4194 20.5806C68.5915 21.7527 69.25 23.3424 69.25 25V75C69.25 76.6576 68.5915 78.2473 67.4194 79.4194C66.2473 80.5915 64.6576 81.25 63 81.25H38C36.3424 81.25 34.7527 80.5915 33.5806 79.4194C32.4085 78.2473 31.75 76.6576 31.75 75V25C31.75 23.3424 32.4085 21.7527 33.5806 20.5806C34.7527 19.4085 36.3424 18.75 38 18.75H63ZM38 12.5C34.6848 12.5 31.5054 13.817 29.1612 16.1612C26.817 18.5054 25.5 21.6848 25.5 25V75C25.5 78.3152 26.817 81.4946 29.1612 83.8388C31.5054 86.183 34.6848 87.5 38 87.5H63C66.3152 87.5 69.4946 86.183 71.8388 83.8388C74.183 81.4946 75.5 78.3152 75.5 75V25C75.5 21.6848 74.183 18.5054 71.8388 16.1612C69.4946 13.817 66.3152 12.5 63 12.5H38Z" fill="#FEDC64"/>
<path d="M50.5 75C52.1576 75 53.7473 74.3415 54.9194 73.1694C56.0915 71.9973 56.75 70.4076 56.75 68.75C56.75 67.0924 56.0915 65.5027 54.9194 64.3306C53.7473 63.1585 52.1576 62.5 50.5 62.5C48.8424 62.5 47.2527 63.1585 46.0806 64.3306C44.9085 65.5027 44.25 67.0924 44.25 68.75C44.25 70.4076 44.9085 71.9973 46.0806 73.1694C47.2527 74.3415 48.8424 75 50.5 75ZM10.4937 25.3625C10.8566 25.5545 11.1781 25.8161 11.4398 26.1323C11.7015 26.4486 11.8983 26.8133 12.0191 27.2057C12.1398 27.598 12.182 28.0103 12.1434 28.419C12.1047 28.8277 11.9859 29.2247 11.7937 29.5875C8.47028 35.8775 6.73854 42.886 6.75 50C6.75 57.375 8.575 64.325 11.7937 70.4125C12.1816 71.1452 12.2626 72.0019 12.0188 72.7942C11.775 73.5866 11.2264 74.2496 10.4937 74.6375C9.76109 75.0254 8.90435 75.1063 8.11201 74.8625C7.31967 74.6187 6.65663 74.0702 6.26875 73.3375C2.4689 66.1461 0.488274 58.1335 0.499998 50C0.499998 41.5813 2.5875 33.6312 6.26875 26.6625C6.46073 26.2997 6.72233 25.9782 7.03858 25.7165C7.35484 25.4547 7.71956 25.2579 8.11192 25.1372C8.50427 25.0165 8.91657 24.9742 9.32525 25.0129C9.73393 25.0515 10.131 25.1703 10.4937 25.3625V25.3625ZM90.5063 25.3625C90.869 25.1703 91.2661 25.0515 91.6748 25.0129C92.0834 24.9742 92.4957 25.0165 92.8881 25.1372C93.2804 25.2579 93.6452 25.4547 93.9614 25.7165C94.2777 25.9782 94.5393 26.2997 94.7313 26.6625C98.5313 33.8538 100.512 41.8664 100.5 50C100.512 58.1336 98.5313 66.1462 94.7313 73.3375C94.3434 74.0702 93.6803 74.6187 92.888 74.8625C92.0957 75.1063 91.2389 75.0254 90.5063 74.6375C89.7736 74.2496 89.225 73.5866 88.9812 72.7942C88.7374 72.0019 88.8184 71.1452 89.2063 70.4125C92.5297 64.1225 94.2615 57.114 94.25 50C94.25 42.625 92.425 35.675 89.2063 29.5875C89.0141 29.2247 88.8953 28.8277 88.8566 28.419C88.818 28.0103 88.8602 27.598 88.9809 27.2057C89.1017 26.8133 89.2985 26.4486 89.5602 26.1323C89.8219 25.8161 90.1434 25.5545 90.5063 25.3625ZM19.6062 34.5875C19.9889 34.7367 20.3383 34.9598 20.6347 35.2442C20.931 35.5285 21.1683 35.8685 21.3332 36.2446C21.498 36.6207 21.5871 37.0257 21.5954 37.4363C21.6036 37.8469 21.5309 38.255 21.3813 38.6375C19.9684 42.2589 19.2455 46.1127 19.25 50C19.25 54.0125 20 57.8437 21.375 61.3625C21.5494 61.7488 21.6434 62.1665 21.6513 62.5902C21.6592 63.0139 21.5809 63.4348 21.421 63.8273C21.2611 64.2198 21.0231 64.5757 20.7214 64.8733C20.4196 65.1709 20.0605 65.4041 19.6659 65.5585C19.2712 65.713 18.8492 65.7856 18.4257 65.7719C18.0021 65.7581 17.5857 65.6584 17.2019 65.4787C16.8181 65.299 16.4748 65.0431 16.193 64.7266C15.9111 64.4101 15.6966 64.0395 15.5625 63.6375C13.8654 59.2912 12.9963 54.6659 13 50C13 45.1938 13.9063 40.5937 15.5625 36.3625C15.8639 35.5913 16.459 34.9712 17.2171 34.6384C17.9753 34.3056 18.8346 34.2873 19.6062 34.5875V34.5875ZM81.3938 34.5875C81.7762 34.4379 82.1844 34.3651 82.595 34.3734C83.0056 34.3816 83.4105 34.4707 83.7867 34.6356C84.1628 34.8004 84.5028 35.0378 84.7871 35.3341C85.0714 35.6304 85.2946 35.9799 85.4438 36.3625C87.0938 40.5937 88 45.1938 88 50C88 54.8063 87.0938 59.4063 85.4375 63.6375C85.1078 64.3677 84.5102 64.9434 83.7682 65.2456C83.0262 65.5479 82.1965 65.5536 81.4504 65.2615C80.7043 64.9695 80.0989 64.4021 79.7592 63.6765C79.4195 62.9509 79.3714 62.1225 79.625 61.3625C81 57.8437 81.75 54.0125 81.75 50C81.75 45.9875 81 42.1563 79.625 38.6375C79.3225 37.8659 79.3389 37.0057 79.6706 36.2462C80.0023 35.4867 80.6221 34.89 81.3938 34.5875V34.5875Z" fill="#FEDC64"/>
</g>
<defs>
<clipPath id="clip0_4_20">
<rect width="100" height="100" fill="white" transform="translate(0.5)"/>
</clipPath>
</defs>
</svg>
