<svg width="101" height="100" viewBox="0 0 101 100" fill="none" xmlns="http://www.w3.org/2000/svg">
<path fill-rule="evenodd" clip-rule="evenodd" d="M25.5 79.1667C26.6051 79.1667 27.6649 78.7277 28.4463 77.9463C29.2277 77.1649 29.6667 76.1051 29.6667 75C29.6667 73.8949 29.2277 72.8351 28.4463 72.0537C27.6649 71.2723 26.6051 70.8333 25.5 70.8333C24.3949 70.8333 23.3351 71.2723 22.5537 72.0537C21.7723 72.8351 21.3333 73.8949 21.3333 75C21.3333 76.1051 21.7723 77.1649 22.5537 77.9463C23.3351 78.7277 24.3949 79.1667 25.5 79.1667ZM25.5 87.5C22.1848 87.5 19.0054 86.183 16.6612 83.8388C14.317 81.4946 13 78.3152 13 75C13 71.6848 14.317 68.5054 16.6612 66.1612C19.0054 63.817 22.1848 62.5 25.5 62.5C28.8152 62.5 31.9946 63.817 34.3388 66.1612C36.683 68.5054 38 71.6848 38 75C38 78.3152 36.683 81.4946 34.3388 83.8388C31.9946 86.183 28.8152 87.5 25.5 87.5ZM79.5458 87.5C77.4708 51.7 48.8 23.0292 13 20.9542V12.5C54.4208 12.5 88 46.0792 88 87.5H79.5458ZM58.6625 87.5C56.6583 63.2083 37.2875 43.8417 13 41.8375V33.3333C42.9167 33.3333 67.1667 57.5833 67.1667 87.5H58.6625Z" fill="#64FEDB"/>
</svg>
