<svg width="101" height="100" viewBox="0 0 101 100" fill="none" xmlns="http://www.w3.org/2000/svg">
<path d="M66.0417 12.5H34.9583L13 34.4583V65.5417L34.9583 87.5H66.0417L88 65.5417V34.4583L66.0417 12.5ZM79.6667 62.0833L62.5833 79.1667H38.4167L21.3333 62.0833V37.9167L38.4167 20.8333H62.5833L79.6667 37.9167V62.0833V62.0833Z" fill="#EB5757"/>
<path d="M50.5 70.8333C52.8012 70.8333 54.6666 68.9678 54.6666 66.6667C54.6666 64.3655 52.8012 62.5 50.5 62.5C48.1988 62.5 46.3333 64.3655 46.3333 66.6667C46.3333 68.9678 48.1988 70.8333 50.5 70.8333Z" fill="#EB5757"/>
<path d="M46.3333 29.1667H54.6666V58.3333H46.3333V29.1667Z" fill="#EB5757"/>
</svg>
